<?xml version="1.0"?>
<svg xmlns="http://www.w3.org/2000/svg" width="16" height="16" view-box="0 0 18 18">
    <!-- <path d="M0,0 L16,0 L16,16 L0,16 z" fill="black"></path> -->
    <!-- <line x1="0" y1="0" x2="5" y2="10" stroke="black" /> -->
    <!-- <ellipse cx="8" cy="8" rx="8" ry="8" fill="black" /> -->
    <!-- <path d="M0,14 L8,6 l-1,-1 l1,1 L10,8 L2,16 L0,16 z" fill="black" /> -->

    <path d="M2,14 l1,-3 l6,-6 l2,2 l-6,6 z" fill="none" stroke-linejoin="round" stroke="black" stroke-width="0.5" />
    <path d="M7.5,4.5 l1.5,-1.5 l1.0,1.0 l2,-2 q1,-1,2,0 t0,2 l-2,2 l1.0,1.0 l-1.5,1.5 z" fill="black" stroke-linejoin="round" stroke="black" stroke-width="1" />

    <!-- <path d="M3.13523 6.15803C3.3241 5.95657 3.64052 5.94637 3.84197 6.13523L7.5 9.56464L11.158 6.13523C11.3595 5.94637 11.6759 5.95657 11.8648 6.15803C12.0536 6.35949 12.0434 6.67591 11.842 6.86477L7.84197 10.6148C7.64964 10.7951 7.35036 10.7951 7.15803 10.6148L3.15803 6.86477C2.95657 6.67591 2.94637 6.35949 3.13523 6.15803Z" fill="black" fill-rule="evenodd" clip-rule="evenodd" /> -->

    <rect width="16" height="16" fill="none" stroke="black" stroke-width="1" />
</svg>
